<svg xmlns="http://www.w3.org/2000/svg" xmlns:xlink="http://www.w3.org/1999/xlink" width="1080" zoomAndPan="magnify" viewBox="0 0 810 1012.49997" height="1350" preserveAspectRatio="xMidYMid meet" version="1.0"><defs><g/><clipPath id="af8f254aca"><path d="M 0.199219 0 L 809.800781 0 L 809.800781 1012 L 0.199219 1012 Z M 0.199219 0 " clip-rule="nonzero"/></clipPath><clipPath id="359084944e"><rect x="0" width="435" y="0" height="622"/></clipPath></defs><g clip-path="url(#af8f254aca)"><path fill="#ffffff" d="M 0.199219 0 L 809.800781 0 L 809.800781 1012 L 0.199219 1012 Z M 0.199219 0 " fill-opacity="1" fill-rule="nonzero"/><path fill="#101010" d="M 0.199219 0 L 809.800781 0 L 809.800781 1012 L 0.199219 1012 Z M 0.199219 0 " fill-opacity="1" fill-rule="nonzero"/></g><g fill="#ffffff" fill-opacity="1"><g transform="translate(265.387296, 951.130238)"><g><path d="M 23.140625 -11.65625 C 23.140625 -10.101562 22.71875 -8.6875 21.875 -7.40625 C 21.039062 -6.132812 20.03125 -5.125 18.84375 -4.375 C 17.664062 -3.632812 16.632812 -3.265625 15.75 -3.265625 C 15.382812 -3.265625 15.085938 -3.367188 14.859375 -3.578125 C 14.628906 -3.785156 14.519531 -4.0625 14.53125 -4.40625 L 14.5625 -4.765625 C 13.976562 -4.304688 13.421875 -3.941406 12.890625 -3.671875 C 12.367188 -3.398438 11.847656 -3.265625 11.328125 -3.265625 C 10.460938 -3.265625 9.773438 -3.539062 9.265625 -4.09375 C 8.765625 -4.644531 8.515625 -5.351562 8.515625 -6.21875 C 8.515625 -6.976562 8.675781 -7.773438 9 -8.609375 C 9.332031 -9.441406 9.84375 -10.265625 10.53125 -11.078125 C 11.195312 -11.878906 11.988281 -12.519531 12.90625 -13 C 13.832031 -13.476562 14.703125 -13.71875 15.515625 -13.71875 C 16.804688 -13.71875 17.609375 -13.09375 17.921875 -11.84375 L 18.703125 -13.328125 L 20.34375 -13.328125 L 17.5625 -7.796875 C 17.09375 -6.867188 16.796875 -6.242188 16.671875 -5.921875 C 16.546875 -5.597656 16.484375 -5.367188 16.484375 -5.234375 C 16.484375 -5.085938 16.515625 -4.984375 16.578125 -4.921875 C 16.640625 -4.859375 16.75 -4.828125 16.90625 -4.828125 C 17.351562 -4.828125 17.835938 -5.007812 18.359375 -5.375 C 18.890625 -5.738281 19.421875 -6.273438 19.953125 -6.984375 C 20.484375 -7.679688 20.882812 -8.414062 21.15625 -9.1875 C 21.425781 -9.96875 21.5625 -10.71875 21.5625 -11.4375 C 21.5625 -12.382812 21.320312 -13.21875 20.84375 -13.9375 C 20.375 -14.65625 19.71875 -15.207031 18.875 -15.59375 C 18.03125 -15.988281 17.070312 -16.1875 16 -16.1875 C 14.84375 -16.1875 13.710938 -15.941406 12.609375 -15.453125 C 11.503906 -14.960938 10.5 -14.238281 9.59375 -13.28125 C 7.800781 -11.394531 6.90625 -9.269531 6.90625 -6.90625 C 6.90625 -5.757812 7.15625 -4.738281 7.65625 -3.84375 C 8.164062 -2.957031 8.878906 -2.265625 9.796875 -1.765625 C 10.710938 -1.273438 11.765625 -1.03125 12.953125 -1.03125 C 14.066406 -1.03125 15.195312 -1.273438 16.34375 -1.765625 C 17.5 -2.253906 18.503906 -2.921875 19.359375 -3.765625 L 20.96875 -3.765625 C 19.875 -2.441406 18.585938 -1.40625 17.109375 -0.65625 C 15.628906 0.0820312 14.125 0.453125 12.59375 0.453125 C 11.125 0.453125 9.820312 0.140625 8.6875 -0.484375 C 7.5625 -1.109375 6.691406 -1.960938 6.078125 -3.046875 C 5.460938 -4.128906 5.15625 -5.351562 5.15625 -6.71875 C 5.15625 -8.070312 5.445312 -9.40625 6.03125 -10.71875 C 6.613281 -12.03125 7.472656 -13.238281 8.609375 -14.34375 C 9.742188 -15.445312 10.976562 -16.273438 12.3125 -16.828125 C 13.644531 -17.390625 14.984375 -17.671875 16.328125 -17.671875 C 17.640625 -17.671875 18.8125 -17.421875 19.84375 -16.921875 C 20.875 -16.421875 21.679688 -15.710938 22.265625 -14.796875 C 22.847656 -13.890625 23.140625 -12.84375 23.140625 -11.65625 Z M 12.140625 -4.984375 C 12.597656 -4.984375 13.109375 -5.148438 13.671875 -5.484375 C 14.234375 -5.828125 14.753906 -6.300781 15.234375 -6.90625 C 16.273438 -8.195312 16.796875 -9.328125 16.796875 -10.296875 C 16.796875 -10.785156 16.640625 -11.191406 16.328125 -11.515625 C 16.023438 -11.835938 15.648438 -12 15.203125 -12 C 14.503906 -12 13.789062 -11.710938 13.0625 -11.140625 C 12.332031 -10.578125 11.726562 -9.867188 11.25 -9.015625 C 10.78125 -8.171875 10.546875 -7.378906 10.546875 -6.640625 C 10.546875 -6.148438 10.679688 -5.75 10.953125 -5.4375 C 11.234375 -5.132812 11.628906 -4.984375 12.140625 -4.984375 Z M 12.140625 -4.984375 "/></g></g></g><g fill="#ffffff" fill-opacity="1"><g transform="translate(289.735325, 951.130238)"><g><path d="M 13.21875 -8.921875 L 11.875 -2.59375 C 11.789062 -2.257812 11.75 -2.039062 11.75 -1.9375 C 11.75 -1.601562 11.941406 -1.4375 12.328125 -1.4375 C 12.546875 -1.4375 12.785156 -1.46875 13.046875 -1.53125 L 12.71875 0 C 12.28125 0.15625 11.832031 0.234375 11.375 0.234375 C 10.21875 0.234375 9.640625 -0.25 9.640625 -1.21875 C 9.640625 -1.300781 9.644531 -1.375 9.65625 -1.4375 C 9.664062 -1.5 9.675781 -1.578125 9.6875 -1.671875 C 8.882812 -0.953125 8.082031 -0.429688 7.28125 -0.109375 C 6.488281 0.203125 5.632812 0.359375 4.71875 0.359375 C 3.695312 0.359375 2.898438 0.109375 2.328125 -0.390625 C 1.753906 -0.898438 1.46875 -1.585938 1.46875 -2.453125 C 1.46875 -2.929688 1.585938 -3.515625 1.828125 -4.203125 C 2.078125 -4.890625 2.570312 -5.523438 3.3125 -6.109375 C 4.0625 -6.691406 5.082031 -7.0625 6.375 -7.21875 L 9.625 -7.609375 C 10.269531 -7.679688 10.703125 -7.894531 10.921875 -8.25 C 11.140625 -8.601562 11.25 -9.039062 11.25 -9.5625 C 11.25 -10.625 10.394531 -11.15625 8.6875 -11.15625 C 7.832031 -11.15625 7.125 -10.96875 6.5625 -10.59375 C 6.007812 -10.226562 5.582031 -9.609375 5.28125 -8.734375 L 3.328125 -8.734375 C 3.671875 -10.148438 4.347656 -11.195312 5.359375 -11.875 C 6.378906 -12.5625 7.71875 -12.90625 9.375 -12.90625 C 10.507812 -12.90625 11.457031 -12.675781 12.21875 -12.21875 C 12.976562 -11.757812 13.367188 -11.082031 13.390625 -10.1875 C 13.390625 -9.882812 13.332031 -9.460938 13.21875 -8.921875 Z M 5.59375 -1.390625 C 6.226562 -1.390625 6.875 -1.515625 7.53125 -1.765625 C 8.1875 -2.023438 8.742188 -2.367188 9.203125 -2.796875 C 9.671875 -3.234375 9.960938 -3.703125 10.078125 -4.203125 L 10.578125 -6.40625 C 10.347656 -6.226562 9.921875 -6.078125 9.296875 -5.953125 C 8.679688 -5.835938 7.773438 -5.707031 6.578125 -5.5625 C 4.679688 -5.289062 3.734375 -4.40625 3.734375 -2.90625 C 3.734375 -1.894531 4.351562 -1.390625 5.59375 -1.390625 Z M 5.59375 -1.390625 "/></g></g></g><g fill="#ffffff" fill-opacity="1"><g transform="translate(303.072766, 951.130238)"><g><path d="M 13.59375 -8.5625 L 11.78125 0 L 9.671875 0 L 11.25 -7.453125 C 11.40625 -8.191406 11.484375 -8.722656 11.484375 -9.046875 C 11.484375 -9.710938 11.316406 -10.207031 10.984375 -10.53125 C 10.660156 -10.851562 10.117188 -11.015625 9.359375 -11.015625 C 8.398438 -11.015625 7.523438 -10.65625 6.734375 -9.9375 C 5.953125 -9.226562 5.414062 -8.203125 5.125 -6.859375 L 3.671875 0 L 1.5625 0 L 4.21875 -12.546875 L 6.21875 -12.546875 L 5.828125 -10.765625 L 5.875 -10.765625 C 7.15625 -12.191406 8.570312 -12.90625 10.125 -12.90625 C 11.269531 -12.90625 12.160156 -12.640625 12.796875 -12.109375 C 13.429688 -11.585938 13.75 -10.828125 13.75 -9.828125 C 13.75 -9.398438 13.695312 -8.976562 13.59375 -8.5625 Z M 13.59375 -8.5625 "/></g></g></g><g fill="#ffffff" fill-opacity="1"><g transform="translate(316.410207, 951.130238)"><g><path d="M 8.828125 -12.546875 L 8.46875 -10.796875 L 6.453125 -10.796875 L 4.75 -2.859375 C 4.695312 -2.648438 4.671875 -2.476562 4.671875 -2.34375 C 4.671875 -1.882812 5 -1.65625 5.65625 -1.65625 L 6.53125 -1.65625 L 6.15625 0 C 5.21875 0.113281 4.675781 0.171875 4.53125 0.171875 C 3.144531 0.171875 2.453125 -0.375 2.453125 -1.46875 C 2.453125 -1.800781 2.5 -2.195312 2.59375 -2.65625 L 4.34375 -10.796875 L 2.640625 -10.796875 L 3 -12.546875 L 4.703125 -12.546875 L 5.4375 -16.046875 L 7.5625 -16.046875 L 6.8125 -12.546875 Z M 8.828125 -12.546875 "/></g></g></g><g fill="#ffffff" fill-opacity="1"><g transform="translate(323.078922, 951.130238)"><g><path d="M 4.75 -14.828125 L 5.28125 -17.21875 L 7.390625 -17.21875 L 6.859375 -14.828125 Z M 1.609375 0 L 4.265625 -12.546875 L 6.375 -12.546875 L 3.71875 0 Z M 1.609375 0 "/></g></g></g><g fill="#ffffff" fill-opacity="1"><g transform="translate(328.404306, 951.130238)"><g><path d="M 17.296875 -12.90625 C 18.203125 -12.90625 18.953125 -12.648438 19.546875 -12.140625 C 20.140625 -11.640625 20.4375 -10.921875 20.4375 -9.984375 C 20.4375 -9.597656 20.378906 -9.125 20.265625 -8.5625 L 18.4375 0 L 16.328125 0 L 18.0625 -8.078125 C 18.15625 -8.585938 18.203125 -8.988281 18.203125 -9.28125 C 18.203125 -10.4375 17.585938 -11.015625 16.359375 -11.015625 C 15.796875 -11.015625 15.253906 -10.851562 14.734375 -10.53125 C 14.210938 -10.207031 13.769531 -9.789062 13.40625 -9.28125 C 13.050781 -8.769531 12.8125 -8.226562 12.6875 -7.65625 L 11.0625 0 L 8.953125 0 L 10.765625 -8.53125 C 10.828125 -8.84375 10.859375 -9.15625 10.859375 -9.46875 C 10.859375 -9.90625 10.742188 -10.269531 10.515625 -10.5625 C 10.285156 -10.863281 9.890625 -11.015625 9.328125 -11.015625 C 8.347656 -11.015625 7.472656 -10.648438 6.703125 -9.921875 C 5.941406 -9.203125 5.410156 -8.148438 5.109375 -6.765625 L 3.671875 0 L 1.5625 0 L 4.21875 -12.546875 L 6.21875 -12.546875 L 5.828125 -10.765625 L 5.875 -10.765625 C 7.132812 -12.191406 8.550781 -12.90625 10.125 -12.90625 C 11.6875 -12.90625 12.65625 -12.222656 13.03125 -10.859375 C 13.957031 -11.710938 14.710938 -12.265625 15.296875 -12.515625 C 15.890625 -12.773438 16.554688 -12.90625 17.296875 -12.90625 Z M 17.296875 -12.90625 "/></g></g></g><g fill="#ffffff" fill-opacity="1"><g transform="translate(348.386476, 951.130238)"><g><path d="M 13.21875 -8.921875 L 11.875 -2.59375 C 11.789062 -2.257812 11.75 -2.039062 11.75 -1.9375 C 11.75 -1.601562 11.941406 -1.4375 12.328125 -1.4375 C 12.546875 -1.4375 12.785156 -1.46875 13.046875 -1.53125 L 12.71875 0 C 12.28125 0.15625 11.832031 0.234375 11.375 0.234375 C 10.21875 0.234375 9.640625 -0.25 9.640625 -1.21875 C 9.640625 -1.300781 9.644531 -1.375 9.65625 -1.4375 C 9.664062 -1.5 9.675781 -1.578125 9.6875 -1.671875 C 8.882812 -0.953125 8.082031 -0.429688 7.28125 -0.109375 C 6.488281 0.203125 5.632812 0.359375 4.71875 0.359375 C 3.695312 0.359375 2.898438 0.109375 2.328125 -0.390625 C 1.753906 -0.898438 1.46875 -1.585938 1.46875 -2.453125 C 1.46875 -2.929688 1.585938 -3.515625 1.828125 -4.203125 C 2.078125 -4.890625 2.570312 -5.523438 3.3125 -6.109375 C 4.0625 -6.691406 5.082031 -7.0625 6.375 -7.21875 L 9.625 -7.609375 C 10.269531 -7.679688 10.703125 -7.894531 10.921875 -8.25 C 11.140625 -8.601562 11.25 -9.039062 11.25 -9.5625 C 11.25 -10.625 10.394531 -11.15625 8.6875 -11.15625 C 7.832031 -11.15625 7.125 -10.96875 6.5625 -10.59375 C 6.007812 -10.226562 5.582031 -9.609375 5.28125 -8.734375 L 3.328125 -8.734375 C 3.671875 -10.148438 4.347656 -11.195312 5.359375 -11.875 C 6.378906 -12.5625 7.71875 -12.90625 9.375 -12.90625 C 10.507812 -12.90625 11.457031 -12.675781 12.21875 -12.21875 C 12.976562 -11.757812 13.367188 -11.082031 13.390625 -10.1875 C 13.390625 -9.882812 13.332031 -9.460938 13.21875 -8.921875 Z M 5.59375 -1.390625 C 6.226562 -1.390625 6.875 -1.515625 7.53125 -1.765625 C 8.1875 -2.023438 8.742188 -2.367188 9.203125 -2.796875 C 9.671875 -3.234375 9.960938 -3.703125 10.078125 -4.203125 L 10.578125 -6.40625 C 10.347656 -6.226562 9.921875 -6.078125 9.296875 -5.953125 C 8.679688 -5.835938 7.773438 -5.707031 6.578125 -5.5625 C 4.679688 -5.289062 3.734375 -4.40625 3.734375 -2.90625 C 3.734375 -1.894531 4.351562 -1.390625 5.59375 -1.390625 Z M 5.59375 -1.390625 "/></g></g></g><g fill="#ffffff" fill-opacity="1"><g transform="translate(361.723917, 951.130238)"><g><path d="M 5.515625 -7.265625 L 3.953125 0 L 1.84375 0 L 4.515625 -12.546875 L 6.5 -12.546875 L 6.0625 -10.453125 L 6.109375 -10.453125 C 6.734375 -11.253906 7.363281 -11.863281 8 -12.28125 C 8.644531 -12.695312 9.359375 -12.90625 10.140625 -12.90625 C 10.367188 -12.90625 10.554688 -12.878906 10.703125 -12.828125 L 10.21875 -10.65625 L 9.40625 -10.65625 C 8.925781 -10.65625 8.421875 -10.535156 7.890625 -10.296875 C 7.359375 -10.066406 6.875 -9.695312 6.4375 -9.1875 C 6 -8.6875 5.691406 -8.046875 5.515625 -7.265625 Z M 5.515625 -7.265625 "/></g></g></g><g fill="#ffffff" fill-opacity="1"><g transform="translate(370.071807, 951.130238)"><g><path d="M 11.703125 -12.546875 L 14.390625 -12.546875 L 8.609375 -7.859375 L 12.015625 0 L 9.3125 0 L 6.734375 -6.328125 L 4.65625 -4.75 L 3.640625 0 L 1.609375 0 L 5.28125 -17.21875 L 7.3125 -17.21875 L 5.1875 -7.25 Z M 11.703125 -12.546875 "/></g></g></g><g fill="#ffffff" fill-opacity="1"><g transform="translate(381.586143, 951.130238)"><g><path d="M 13.578125 -5.59375 L 4.40625 -5.59375 C 4.300781 -5.144531 4.25 -4.679688 4.25 -4.203125 C 4.25 -3.316406 4.488281 -2.640625 4.96875 -2.171875 C 5.457031 -1.703125 6.191406 -1.46875 7.171875 -1.46875 C 7.710938 -1.46875 8.25 -1.582031 8.78125 -1.8125 C 9.320312 -2.039062 9.785156 -2.347656 10.171875 -2.734375 C 10.554688 -3.117188 10.8125 -3.519531 10.9375 -3.9375 L 13.046875 -3.9375 C 12.828125 -3.320312 12.472656 -2.726562 11.984375 -2.15625 C 11.503906 -1.582031 10.988281 -1.101562 10.4375 -0.71875 C 9.875 -0.332031 9.285156 -0.0546875 8.671875 0.109375 C 8.066406 0.273438 7.351562 0.359375 6.53125 0.359375 C 5.007812 0.359375 3.878906 -0.0625 3.140625 -0.90625 C 2.398438 -1.757812 2.03125 -2.84375 2.03125 -4.15625 C 2.03125 -5.695312 2.351562 -7.132812 3 -8.46875 C 3.664062 -9.84375 4.585938 -10.925781 5.765625 -11.71875 C 6.941406 -12.507812 8.257812 -12.90625 9.71875 -12.90625 C 11.101562 -12.90625 12.144531 -12.492188 12.84375 -11.671875 C 13.539062 -10.859375 13.890625 -9.71875 13.890625 -8.25 C 13.890625 -7.4375 13.785156 -6.550781 13.578125 -5.59375 Z M 11.828125 -8.328125 C 11.828125 -9.203125 11.585938 -9.867188 11.109375 -10.328125 C 10.640625 -10.785156 9.941406 -11.015625 9.015625 -11.015625 C 8.441406 -11.015625 7.851562 -10.847656 7.25 -10.515625 C 6.65625 -10.191406 6.132812 -9.738281 5.6875 -9.15625 C 5.238281 -8.582031 4.925781 -7.953125 4.75 -7.265625 L 11.734375 -7.265625 C 11.796875 -7.585938 11.828125 -7.941406 11.828125 -8.328125 Z M 11.828125 -8.328125 "/></g></g></g><g fill="#ffffff" fill-opacity="1"><g transform="translate(394.923584, 951.130238)"><g><path d="M 8.828125 -12.546875 L 8.46875 -10.796875 L 6.453125 -10.796875 L 4.75 -2.859375 C 4.695312 -2.648438 4.671875 -2.476562 4.671875 -2.34375 C 4.671875 -1.882812 5 -1.65625 5.65625 -1.65625 L 6.53125 -1.65625 L 6.15625 0 C 5.21875 0.113281 4.675781 0.171875 4.53125 0.171875 C 3.144531 0.171875 2.453125 -0.375 2.453125 -1.46875 C 2.453125 -1.800781 2.5 -2.195312 2.59375 -2.65625 L 4.34375 -10.796875 L 2.640625 -10.796875 L 3 -12.546875 L 4.703125 -12.546875 L 5.4375 -16.046875 L 7.5625 -16.046875 L 6.8125 -12.546875 Z M 8.828125 -12.546875 "/></g></g></g><g fill="#ffffff" fill-opacity="1"><g transform="translate(401.592299, 951.130238)"><g><path d="M 4.75 -14.828125 L 5.28125 -17.21875 L 7.390625 -17.21875 L 6.859375 -14.828125 Z M 1.609375 0 L 4.265625 -12.546875 L 6.375 -12.546875 L 3.71875 0 Z M 1.609375 0 "/></g></g></g><g fill="#ffffff" fill-opacity="1"><g transform="translate(406.917683, 951.130238)"><g><path d="M 13.59375 -8.5625 L 11.78125 0 L 9.671875 0 L 11.25 -7.453125 C 11.40625 -8.191406 11.484375 -8.722656 11.484375 -9.046875 C 11.484375 -9.710938 11.316406 -10.207031 10.984375 -10.53125 C 10.660156 -10.851562 10.117188 -11.015625 9.359375 -11.015625 C 8.398438 -11.015625 7.523438 -10.65625 6.734375 -9.9375 C 5.953125 -9.226562 5.414062 -8.203125 5.125 -6.859375 L 3.671875 0 L 1.5625 0 L 4.21875 -12.546875 L 6.21875 -12.546875 L 5.828125 -10.765625 L 5.875 -10.765625 C 7.15625 -12.191406 8.570312 -12.90625 10.125 -12.90625 C 11.269531 -12.90625 12.160156 -12.640625 12.796875 -12.109375 C 13.429688 -11.585938 13.75 -10.828125 13.75 -9.828125 C 13.75 -9.398438 13.695312 -8.976562 13.59375 -8.5625 Z M 13.59375 -8.5625 "/></g></g></g><g fill="#ffffff" fill-opacity="1"><g transform="translate(420.255124, 951.130238)"><g><path d="M 12.1875 -0.984375 C 11.675781 1.316406 10.828125 2.9375 9.640625 3.875 C 8.453125 4.8125 6.898438 5.28125 4.984375 5.28125 C 3.742188 5.28125 2.769531 5.007812 2.0625 4.46875 C 1.351562 3.9375 1 3.160156 1 2.140625 L 1 1.53125 L 3.125 1.53125 C 3.125 2.863281 3.9375 3.53125 5.5625 3.53125 C 7.820312 3.53125 9.238281 2.378906 9.8125 0.078125 L 10.171875 -1.421875 C 9.179688 -0.234375 7.925781 0.359375 6.40625 0.359375 C 5.03125 0.359375 3.972656 -0.0390625 3.234375 -0.84375 C 2.503906 -1.65625 2.140625 -2.804688 2.140625 -4.296875 C 2.140625 -5.890625 2.429688 -7.34375 3.015625 -8.65625 C 3.609375 -9.96875 4.421875 -11.003906 5.453125 -11.765625 C 6.484375 -12.523438 7.640625 -12.90625 8.921875 -12.90625 C 9.671875 -12.90625 10.320312 -12.742188 10.875 -12.421875 C 11.425781 -12.097656 11.882812 -11.523438 12.25 -10.703125 L 12.640625 -12.546875 L 14.625 -12.546875 Z M 11.46875 -7.890625 C 11.46875 -8.929688 11.257812 -9.710938 10.84375 -10.234375 C 10.4375 -10.753906 9.769531 -11.015625 8.84375 -11.015625 C 7.644531 -11.015625 6.695312 -10.597656 6 -9.765625 C 5.3125 -8.929688 4.847656 -8.015625 4.609375 -7.015625 C 4.378906 -6.015625 4.265625 -5.179688 4.265625 -4.515625 C 4.265625 -3.617188 4.457031 -2.882812 4.84375 -2.3125 C 5.238281 -1.75 5.851562 -1.46875 6.6875 -1.46875 C 7.632812 -1.46875 8.472656 -1.742188 9.203125 -2.296875 C 9.929688 -2.859375 10.488281 -3.625 10.875 -4.59375 C 11.269531 -5.570312 11.46875 -6.671875 11.46875 -7.890625 Z M 11.46875 -7.890625 "/></g></g></g><g fill="#ffffff" fill-opacity="1"><g transform="translate(433.592566, 951.130238)"><g><path d="M 17.296875 -12.90625 C 18.203125 -12.90625 18.953125 -12.648438 19.546875 -12.140625 C 20.140625 -11.640625 20.4375 -10.921875 20.4375 -9.984375 C 20.4375 -9.597656 20.378906 -9.125 20.265625 -8.5625 L 18.4375 0 L 16.328125 0 L 18.0625 -8.078125 C 18.15625 -8.585938 18.203125 -8.988281 18.203125 -9.28125 C 18.203125 -10.4375 17.585938 -11.015625 16.359375 -11.015625 C 15.796875 -11.015625 15.253906 -10.851562 14.734375 -10.53125 C 14.210938 -10.207031 13.769531 -9.789062 13.40625 -9.28125 C 13.050781 -8.769531 12.8125 -8.226562 12.6875 -7.65625 L 11.0625 0 L 8.953125 0 L 10.765625 -8.53125 C 10.828125 -8.84375 10.859375 -9.15625 10.859375 -9.46875 C 10.859375 -9.90625 10.742188 -10.269531 10.515625 -10.5625 C 10.285156 -10.863281 9.890625 -11.015625 9.328125 -11.015625 C 8.347656 -11.015625 7.472656 -10.648438 6.703125 -9.921875 C 5.941406 -9.203125 5.410156 -8.148438 5.109375 -6.765625 L 3.671875 0 L 1.5625 0 L 4.21875 -12.546875 L 6.21875 -12.546875 L 5.828125 -10.765625 L 5.875 -10.765625 C 7.132812 -12.191406 8.550781 -12.90625 10.125 -12.90625 C 11.6875 -12.90625 12.65625 -12.222656 13.03125 -10.859375 C 13.957031 -11.710938 14.710938 -12.265625 15.296875 -12.515625 C 15.890625 -12.773438 16.554688 -12.90625 17.296875 -12.90625 Z M 17.296875 -12.90625 "/></g></g></g><g fill="#ffffff" fill-opacity="1"><g transform="translate(453.574735, 951.130238)"><g><path d="M 11.734375 -2.03125 C 10.304688 -0.457031 8.59375 0.328125 6.59375 0.328125 C 5.15625 0.328125 4.023438 -0.0976562 3.203125 -0.953125 C 2.390625 -1.816406 1.984375 -3.003906 1.984375 -4.515625 C 1.984375 -5.929688 2.304688 -7.285156 2.953125 -8.578125 C 3.609375 -9.878906 4.503906 -10.925781 5.640625 -11.71875 C 6.773438 -12.507812 8.03125 -12.90625 9.40625 -12.90625 C 10.875 -12.90625 12.003906 -12.472656 12.796875 -11.609375 C 13.597656 -10.742188 14 -9.535156 14 -7.984375 C 14 -6.910156 13.796875 -5.847656 13.390625 -4.796875 C 12.984375 -3.753906 12.429688 -2.832031 11.734375 -2.03125 Z M 10.546875 -3.53125 C 10.953125 -4.15625 11.265625 -4.894531 11.484375 -5.75 C 11.710938 -6.613281 11.828125 -7.300781 11.828125 -7.8125 C 11.828125 -8.882812 11.585938 -9.695312 11.109375 -10.25 C 10.628906 -10.800781 9.914062 -11.078125 8.96875 -11.078125 C 7.988281 -11.078125 7.140625 -10.738281 6.421875 -10.0625 C 5.703125 -9.394531 5.148438 -8.566406 4.765625 -7.578125 C 4.390625 -6.597656 4.203125 -5.660156 4.203125 -4.765625 C 4.203125 -3.710938 4.441406 -2.898438 4.921875 -2.328125 C 5.398438 -1.765625 6.085938 -1.484375 6.984375 -1.484375 C 8.503906 -1.484375 9.691406 -2.164062 10.546875 -3.53125 Z M 10.546875 -3.53125 "/></g></g></g><g fill="#ffffff" fill-opacity="1"><g transform="translate(466.552346, 951.130238)"><g><path d="M 6.453125 -2.328125 L 12.15625 -12.546875 L 14.46875 -12.546875 L 7.03125 0 L 4.765625 0 L 2.859375 -12.546875 L 5.296875 -12.546875 L 6.40625 -2.328125 Z M 6.453125 -2.328125 "/></g></g></g><g fill="#ffffff" fill-opacity="1"><g transform="translate(477.94675, 951.130238)"><g><path d="M 13.578125 -5.59375 L 4.40625 -5.59375 C 4.300781 -5.144531 4.25 -4.679688 4.25 -4.203125 C 4.25 -3.316406 4.488281 -2.640625 4.96875 -2.171875 C 5.457031 -1.703125 6.191406 -1.46875 7.171875 -1.46875 C 7.710938 -1.46875 8.25 -1.582031 8.78125 -1.8125 C 9.320312 -2.039062 9.785156 -2.347656 10.171875 -2.734375 C 10.554688 -3.117188 10.8125 -3.519531 10.9375 -3.9375 L 13.046875 -3.9375 C 12.828125 -3.320312 12.472656 -2.726562 11.984375 -2.15625 C 11.503906 -1.582031 10.988281 -1.101562 10.4375 -0.71875 C 9.875 -0.332031 9.285156 -0.0546875 8.671875 0.109375 C 8.066406 0.273438 7.351562 0.359375 6.53125 0.359375 C 5.007812 0.359375 3.878906 -0.0625 3.140625 -0.90625 C 2.398438 -1.757812 2.03125 -2.84375 2.03125 -4.15625 C 2.03125 -5.695312 2.351562 -7.132812 3 -8.46875 C 3.664062 -9.84375 4.585938 -10.925781 5.765625 -11.71875 C 6.941406 -12.507812 8.257812 -12.90625 9.71875 -12.90625 C 11.101562 -12.90625 12.144531 -12.492188 12.84375 -11.671875 C 13.539062 -10.859375 13.890625 -9.71875 13.890625 -8.25 C 13.890625 -7.4375 13.785156 -6.550781 13.578125 -5.59375 Z M 11.828125 -8.328125 C 11.828125 -9.203125 11.585938 -9.867188 11.109375 -10.328125 C 10.640625 -10.785156 9.941406 -11.015625 9.015625 -11.015625 C 8.441406 -11.015625 7.851562 -10.847656 7.25 -10.515625 C 6.65625 -10.191406 6.132812 -9.738281 5.6875 -9.15625 C 5.238281 -8.582031 4.925781 -7.953125 4.75 -7.265625 L 11.734375 -7.265625 C 11.796875 -7.585938 11.828125 -7.941406 11.828125 -8.328125 Z M 11.828125 -8.328125 "/></g></g></g><g fill="#ffffff" fill-opacity="1"><g transform="translate(491.28418, 951.130238)"><g><path d="M 17.296875 -12.90625 C 18.203125 -12.90625 18.953125 -12.648438 19.546875 -12.140625 C 20.140625 -11.640625 20.4375 -10.921875 20.4375 -9.984375 C 20.4375 -9.597656 20.378906 -9.125 20.265625 -8.5625 L 18.4375 0 L 16.328125 0 L 18.0625 -8.078125 C 18.15625 -8.585938 18.203125 -8.988281 18.203125 -9.28125 C 18.203125 -10.4375 17.585938 -11.015625 16.359375 -11.015625 C 15.796875 -11.015625 15.253906 -10.851562 14.734375 -10.53125 C 14.210938 -10.207031 13.769531 -9.789062 13.40625 -9.28125 C 13.050781 -8.769531 12.8125 -8.226562 12.6875 -7.65625 L 11.0625 0 L 8.953125 0 L 10.765625 -8.53125 C 10.828125 -8.84375 10.859375 -9.15625 10.859375 -9.46875 C 10.859375 -9.90625 10.742188 -10.269531 10.515625 -10.5625 C 10.285156 -10.863281 9.890625 -11.015625 9.328125 -11.015625 C 8.347656 -11.015625 7.472656 -10.648438 6.703125 -9.921875 C 5.941406 -9.203125 5.410156 -8.148438 5.109375 -6.765625 L 3.671875 0 L 1.5625 0 L 4.21875 -12.546875 L 6.21875 -12.546875 L 5.828125 -10.765625 L 5.875 -10.765625 C 7.132812 -12.191406 8.550781 -12.90625 10.125 -12.90625 C 11.6875 -12.90625 12.65625 -12.222656 13.03125 -10.859375 C 13.957031 -11.710938 14.710938 -12.265625 15.296875 -12.515625 C 15.890625 -12.773438 16.554688 -12.90625 17.296875 -12.90625 Z M 17.296875 -12.90625 "/></g></g></g><g fill="#ffffff" fill-opacity="1"><g transform="translate(511.266361, 951.130238)"><g><path d="M 13.578125 -5.59375 L 4.40625 -5.59375 C 4.300781 -5.144531 4.25 -4.679688 4.25 -4.203125 C 4.25 -3.316406 4.488281 -2.640625 4.96875 -2.171875 C 5.457031 -1.703125 6.191406 -1.46875 7.171875 -1.46875 C 7.710938 -1.46875 8.25 -1.582031 8.78125 -1.8125 C 9.320312 -2.039062 9.785156 -2.347656 10.171875 -2.734375 C 10.554688 -3.117188 10.8125 -3.519531 10.9375 -3.9375 L 13.046875 -3.9375 C 12.828125 -3.320312 12.472656 -2.726562 11.984375 -2.15625 C 11.503906 -1.582031 10.988281 -1.101562 10.4375 -0.71875 C 9.875 -0.332031 9.285156 -0.0546875 8.671875 0.109375 C 8.066406 0.273438 7.351562 0.359375 6.53125 0.359375 C 5.007812 0.359375 3.878906 -0.0625 3.140625 -0.90625 C 2.398438 -1.757812 2.03125 -2.84375 2.03125 -4.15625 C 2.03125 -5.695312 2.351562 -7.132812 3 -8.46875 C 3.664062 -9.84375 4.585938 -10.925781 5.765625 -11.71875 C 6.941406 -12.507812 8.257812 -12.90625 9.71875 -12.90625 C 11.101562 -12.90625 12.144531 -12.492188 12.84375 -11.671875 C 13.539062 -10.859375 13.890625 -9.71875 13.890625 -8.25 C 13.890625 -7.4375 13.785156 -6.550781 13.578125 -5.59375 Z M 11.828125 -8.328125 C 11.828125 -9.203125 11.585938 -9.867188 11.109375 -10.328125 C 10.640625 -10.785156 9.941406 -11.015625 9.015625 -11.015625 C 8.441406 -11.015625 7.851562 -10.847656 7.25 -10.515625 C 6.65625 -10.191406 6.132812 -9.738281 5.6875 -9.15625 C 5.238281 -8.582031 4.925781 -7.953125 4.75 -7.265625 L 11.734375 -7.265625 C 11.796875 -7.585938 11.828125 -7.941406 11.828125 -8.328125 Z M 11.828125 -8.328125 "/></g></g></g><g fill="#ffffff" fill-opacity="1"><g transform="translate(524.603814, 951.130238)"><g><path d="M 13.59375 -8.5625 L 11.78125 0 L 9.671875 0 L 11.25 -7.453125 C 11.40625 -8.191406 11.484375 -8.722656 11.484375 -9.046875 C 11.484375 -9.710938 11.316406 -10.207031 10.984375 -10.53125 C 10.660156 -10.851562 10.117188 -11.015625 9.359375 -11.015625 C 8.398438 -11.015625 7.523438 -10.65625 6.734375 -9.9375 C 5.953125 -9.226562 5.414062 -8.203125 5.125 -6.859375 L 3.671875 0 L 1.5625 0 L 4.21875 -12.546875 L 6.21875 -12.546875 L 5.828125 -10.765625 L 5.875 -10.765625 C 7.15625 -12.191406 8.570312 -12.90625 10.125 -12.90625 C 11.269531 -12.90625 12.160156 -12.640625 12.796875 -12.109375 C 13.429688 -11.585938 13.75 -10.828125 13.75 -9.828125 C 13.75 -9.398438 13.695312 -8.976562 13.59375 -8.5625 Z M 13.59375 -8.5625 "/></g></g></g><g fill="#ffffff" fill-opacity="1"><g transform="translate(537.941244, 951.130238)"><g><path d="M 8.828125 -12.546875 L 8.46875 -10.796875 L 6.453125 -10.796875 L 4.75 -2.859375 C 4.695312 -2.648438 4.671875 -2.476562 4.671875 -2.34375 C 4.671875 -1.882812 5 -1.65625 5.65625 -1.65625 L 6.53125 -1.65625 L 6.15625 0 C 5.21875 0.113281 4.675781 0.171875 4.53125 0.171875 C 3.144531 0.171875 2.453125 -0.375 2.453125 -1.46875 C 2.453125 -1.800781 2.5 -2.195312 2.59375 -2.65625 L 4.34375 -10.796875 L 2.640625 -10.796875 L 3 -12.546875 L 4.703125 -12.546875 L 5.4375 -16.046875 L 7.5625 -16.046875 L 6.8125 -12.546875 Z M 8.828125 -12.546875 "/></g></g></g><g transform="matrix(1, 0, 0, 1, 164, 184)"><g clip-path="url(#359084944e)"><g fill="#f6f4f0" fill-opacity="1"><g transform="translate(0.597731, 208.56924)"><g><path d="M 13.441406 0 L 13.441406 -125.742188 L 52.691406 -125.742188 L 52.691406 -107.53125 L 50.410156 -107.53125 L 50.410156 -109.8125 L 51.144531 -109.8125 L 51.144531 -107.53125 L 49.21875 -108.75 C 51.507812 -112.371094 54.367188 -115.632812 57.789062 -118.542969 C 61.246094 -121.476562 65.316406 -123.8125 70.003906 -125.546875 C 74.695312 -127.285156 79.9375 -128.152344 85.730469 -128.152344 C 94.300781 -128.152344 101.449219 -126.222656 107.179688 -122.367188 C 112.863281 -118.539062 117.332031 -113.300781 120.582031 -106.644531 L 118.535156 -105.644531 L 118.535156 -107.925781 L 119.582031 -107.925781 L 119.582031 -105.644531 L 117.707031 -106.945312 C 120.824219 -111.433594 124.203125 -115.246094 127.84375 -118.378906 C 131.554688 -121.570312 135.800781 -124 140.578125 -125.667969 C 145.328125 -127.324219 150.765625 -128.152344 156.894531 -128.152344 C 166.246094 -128.152344 174.171875 -126.269531 180.675781 -122.5 C 187.230469 -118.699219 192.199219 -113.269531 195.582031 -106.210938 C 198.910156 -99.261719 200.574219 -91.003906 200.574219 -81.433594 L 200.574219 2.28125 L 160.585938 2.28125 L 160.585938 -72.523438 C 160.585938 -80.160156 159.289062 -85.566406 156.699219 -88.742188 C 154.21875 -91.78125 150.234375 -93.300781 144.734375 -93.300781 C 138.394531 -93.300781 133.839844 -91.367188 131.082031 -87.5 C 128.152344 -83.386719 126.683594 -77.210938 126.683594 -68.960938 L 126.683594 2.28125 L 86.699219 2.28125 L 86.699219 -72.523438 C 86.699219 -80.109375 85.445312 -85.511719 82.9375 -88.730469 C 80.5625 -91.777344 76.671875 -93.300781 71.269531 -93.300781 C 64.863281 -93.300781 60.316406 -91.375 57.625 -87.515625 C 54.757812 -83.402344 53.320312 -77.21875 53.320312 -68.960938 L 53.320312 2.28125 L 13.441406 2.28125 Z M 18 0 L 15.722656 0 L 15.722656 -2.28125 L 51.039062 -2.28125 L 51.039062 0 L 48.757812 0 L 48.757812 -68.960938 C 48.757812 -78.171875 50.46875 -85.230469 53.886719 -90.128906 C 57.484375 -95.285156 63.277344 -97.863281 71.269531 -97.863281 C 78.160156 -97.863281 83.25 -95.753906 86.535156 -91.535156 C 89.683594 -87.488281 91.261719 -81.152344 91.261719 -72.523438 L 91.261719 0 L 88.980469 0 L 88.980469 -2.28125 L 124.402344 -2.28125 L 124.402344 0 L 122.125 0 L 122.125 -68.960938 C 122.125 -78.183594 123.871094 -85.242188 127.367188 -90.148438 C 131.035156 -95.292969 136.828125 -97.863281 144.734375 -97.863281 C 151.675781 -97.863281 156.84375 -95.785156 160.234375 -91.625 C 163.511719 -87.609375 165.148438 -81.242188 165.148438 -72.523438 L 165.148438 0 L 162.867188 0 L 162.867188 -2.28125 L 198.292969 -2.28125 L 198.292969 0 L 196.011719 0 L 196.011719 -81.433594 C 196.011719 -90.3125 194.496094 -97.914062 191.464844 -104.238281 C 188.488281 -110.453125 184.128906 -115.226562 178.386719 -118.554688 C 172.59375 -121.910156 165.429688 -123.589844 156.894531 -123.589844 C 151.28125 -123.589844 146.34375 -122.847656 142.082031 -121.359375 C 137.847656 -119.882812 134.09375 -117.734375 130.816406 -114.917969 C 127.472656 -112.042969 124.351562 -108.515625 121.457031 -104.34375 L 120.777344 -103.363281 L 117.109375 -103.363281 L 116.484375 -104.640625 C 113.589844 -110.5625 109.640625 -115.210938 104.632812 -118.582031 C 99.671875 -121.921875 93.371094 -123.589844 85.730469 -123.589844 C 80.484375 -123.589844 75.769531 -122.816406 71.585938 -121.269531 C 67.402344 -119.71875 63.789062 -117.652344 60.742188 -115.066406 C 57.671875 -112.457031 55.113281 -109.539062 53.074219 -106.3125 L 52.402344 -105.25 L 48.128906 -105.25 L 48.128906 -123.460938 L 50.410156 -123.460938 L 50.410156 -121.179688 L 15.722656 -121.179688 L 15.722656 -123.460938 L 18 -123.460938 Z M 18 0 "/></g></g></g><g fill="#f6f4f0" fill-opacity="1"><g transform="translate(211.965816, 208.56924)"><g><path d="M 64.558594 -128.152344 C 74.996094 -128.152344 84.097656 -126.519531 91.855469 -123.257812 C 99.765625 -119.929688 105.890625 -114.910156 110.230469 -108.191406 C 114.5625 -101.492188 116.726562 -93.203125 116.726562 -83.320312 L 116.726562 2.28125 L 81.039062 2.28125 L 81.039062 -12.785156 L 83.320312 -12.785156 L 84.746094 -11.007812 C 77.128906 -4.898438 69.980469 -0.71875 63.296875 1.53125 C 56.632812 3.777344 50.277344 4.902344 44.226562 4.902344 C 36.128906 4.902344 29.058594 3.464844 23.019531 0.59375 C 16.882812 -2.328125 12.121094 -6.566406 8.742188 -12.125 C 5.375 -17.660156 3.691406 -24.273438 3.691406 -31.964844 C 3.691406 -38.320312 4.851562 -43.90625 7.167969 -48.726562 C 9.472656 -53.519531 12.703125 -57.699219 16.855469 -61.261719 C 20.929688 -64.753906 25.71875 -67.765625 31.222656 -70.300781 C 36.640625 -72.796875 42.515625 -74.933594 48.851562 -76.710938 L 82.695312 -86.351562 L 83.320312 -84.160156 L 81.042969 -84.03125 C 80.804688 -88.289062 79.234375 -91.515625 76.335938 -93.710938 C 73.285156 -96.023438 69.011719 -97.179688 63.511719 -97.179688 C 59.054688 -97.179688 54.507812 -96.476562 49.867188 -95.074219 C 45.167969 -93.65625 40.660156 -91.730469 36.332031 -89.296875 C 32.023438 -86.871094 28.222656 -84.117188 24.933594 -81.027344 L 22.9375 -79.15625 L 5.253906 -106.542969 L 6.84375 -107.835938 C 15.585938 -114.929688 24.910156 -120.09375 34.820312 -123.324219 C 44.695312 -126.542969 54.605469 -128.152344 64.558594 -128.152344 Z M 64.558594 -123.589844 C 55.089844 -123.589844 45.648438 -122.054688 36.234375 -118.988281 C 26.863281 -115.929688 18.023438 -111.03125 9.714844 -104.292969 L 8.28125 -106.0625 L 10.195312 -107.300781 L 25.289062 -83.929688 L 23.371094 -82.691406 L 21.8125 -84.355469 C 25.367188 -87.695312 29.464844 -90.667969 34.097656 -93.273438 C 38.714844 -95.871094 43.53125 -97.925781 48.546875 -99.441406 C 53.617188 -100.976562 58.605469 -101.742188 63.511719 -101.742188 C 70.03125 -101.742188 75.222656 -100.277344 79.089844 -97.347656 C 83.109375 -94.304688 85.277344 -89.949219 85.597656 -84.285156 L 85.699219 -82.464844 L 50.085938 -72.320312 C 43.980469 -70.605469 38.332031 -68.550781 33.128906 -66.15625 C 28.011719 -63.800781 23.578125 -61.011719 19.824219 -57.796875 C 16.15625 -54.652344 13.304688 -50.96875 11.277344 -46.75 C 9.261719 -42.554688 8.253906 -37.628906 8.253906 -31.964844 C 8.253906 -25.125 9.714844 -19.300781 12.640625 -14.496094 C 15.546875 -9.714844 19.660156 -6.058594 24.980469 -3.527344 C 30.398438 -0.949219 36.816406 0.339844 44.226562 0.339844 C 49.777344 0.339844 55.648438 -0.703125 61.839844 -2.789062 C 68.011719 -4.871094 74.699219 -8.796875 81.894531 -14.566406 L 85.601562 -17.539062 L 85.601562 0 L 83.320312 0 L 83.320312 -2.28125 L 114.449219 -2.28125 L 114.449219 0 L 112.167969 0 L 112.167969 -83.320312 C 112.167969 -92.304688 110.246094 -99.769531 106.402344 -105.714844 C 102.570312 -111.644531 97.128906 -116.089844 90.085938 -119.050781 C 82.894531 -122.078125 74.382812 -123.589844 64.558594 -123.589844 Z M 54.5 -24.605469 C 59.023438 -24.605469 63.53125 -25.761719 68.023438 -28.070312 C 72.683594 -30.46875 77.285156 -33.632812 81.828125 -37.566406 L 83.320312 -35.84375 L 81.039062 -35.84375 L 81.039062 -58.902344 L 83.320312 -58.902344 L 84.015625 -56.730469 L 58.550781 -48.554688 C 53.105469 -46.828125 49.105469 -44.878906 46.542969 -42.699219 C 44.285156 -40.78125 43.15625 -38.109375 43.15625 -34.691406 C 43.15625 -31.519531 44.113281 -29.058594 46.027344 -27.308594 C 48.003906 -25.507812 50.828125 -24.605469 54.5 -24.605469 Z M 54.5 -20.042969 C 49.648438 -20.042969 45.796875 -21.34375 42.953125 -23.941406 C 40.046875 -26.59375 38.59375 -30.175781 38.59375 -34.691406 C 38.59375 -39.515625 40.257812 -43.34375 43.589844 -46.175781 C 46.617188 -48.75 51.140625 -50.988281 57.15625 -52.898438 L 85.601562 -62.027344 L 85.601562 -34.800781 L 84.8125 -34.117188 C 79.992188 -29.949219 75.09375 -26.578125 70.109375 -24.015625 C 64.960938 -21.367188 59.757812 -20.042969 54.5 -20.042969 Z M 54.5 -20.042969 "/></g></g></g><g fill="#f6f4f0" fill-opacity="1"><g transform="translate(339.499262, 208.56924)"><g><path d="M 13.441406 0 L 13.441406 -125.742188 L 52.167969 -125.742188 L 52.167969 -101.242188 L 49.886719 -101.242188 L 49.886719 -103.523438 L 50.515625 -103.523438 L 50.515625 -101.242188 L 48.382812 -102.046875 C 51.933594 -111.445312 57.378906 -118.167969 64.71875 -122.210938 C 71.90625 -126.171875 80.832031 -128.152344 91.496094 -128.152344 L 93.777344 -128.152344 L 93.777344 -93.164062 L 91.679688 -92.996094 C 84.167969 -92.386719 77.921875 -91.027344 72.941406 -88.921875 C 68.097656 -86.875 64.257812 -84.046875 61.425781 -80.445312 C 58.566406 -76.800781 56.507812 -72.195312 55.257812 -66.628906 C 53.964844 -60.886719 53.320312 -54.050781 53.320312 -46.113281 L 53.320312 2.28125 L 13.441406 2.28125 Z M 18 0 L 15.722656 0 L 15.722656 -2.28125 L 51.039062 -2.28125 L 51.039062 0 L 48.757812 0 L 48.757812 -46.113281 C 48.757812 -54.386719 49.441406 -61.558594 50.804688 -67.628906 C 52.210938 -73.867188 54.554688 -79.078125 57.839844 -83.261719 C 61.15625 -87.484375 65.597656 -90.769531 71.164062 -93.125 C 76.597656 -95.421875 83.3125 -96.894531 91.3125 -97.542969 L 91.496094 -95.269531 L 89.214844 -95.269531 L 89.214844 -125.871094 L 91.496094 -125.871094 L 91.496094 -123.589844 C 81.617188 -123.589844 73.421875 -121.796875 66.917969 -118.214844 C 60.5625 -114.710938 55.804688 -108.785156 52.648438 -100.4375 L 52.09375 -98.960938 L 47.605469 -98.960938 L 47.605469 -123.460938 L 49.886719 -123.460938 L 49.886719 -121.179688 L 15.722656 -121.179688 L 15.722656 -123.460938 L 18 -123.460938 Z M 18 0 "/></g></g></g><g fill="#f6f4f0" fill-opacity="1"><g transform="translate(0.597731, 389.993521)"><g><path d="M 99.523438 1.21875 L 65.984375 -51.917969 L 67.914062 -53.136719 L 69.527344 -51.523438 L 52.757812 -34.753906 L 51.144531 -36.367188 L 53.425781 -36.367188 L 53.425781 2.28125 L 13.441406 2.28125 L 13.441406 -168.710938 L 53.425781 -168.710938 L 53.425781 -77.136719 L 51.144531 -77.136719 L 49.507812 -78.722656 L 95.035156 -125.742188 L 144.066406 -125.742188 L 92.269531 -74.054688 L 90.65625 -75.667969 L 92.542969 -76.953125 L 146.425781 2.28125 L 100.195312 2.28125 Z M 103.378906 -1.21875 L 101.453125 0 L 101.453125 -2.28125 L 142.117188 -2.28125 L 142.117188 0 L 140.230469 1.28125 L 87.707031 -75.949219 L 136.941406 -125.074219 L 138.550781 -123.460938 L 138.550781 -121.179688 L 96 -121.179688 L 96 -123.460938 L 97.640625 -121.875 L 48.863281 -71.503906 L 48.863281 -166.429688 L 51.144531 -166.429688 L 51.144531 -164.148438 L 15.722656 -164.148438 L 15.722656 -166.429688 L 18 -166.429688 L 18 0 L 15.722656 0 L 15.722656 -2.28125 L 51.144531 -2.28125 L 51.144531 0 L 48.863281 0 L 48.863281 -37.3125 L 68.320312 -56.765625 Z M 103.378906 -1.21875 "/></g></g></g><g fill="#f6f4f0" fill-opacity="1"><g transform="translate(142.487859, 389.993521)"><g><path d="M 72 -27.328125 C 75.390625 -27.328125 78.765625 -27.886719 82.132812 -28.996094 C 85.492188 -30.105469 88.589844 -31.734375 91.425781 -33.886719 C 94.222656 -36.011719 96.523438 -38.617188 98.328125 -41.707031 L 99.625 -43.933594 L 126.859375 -23.292969 L 125.492188 -21.476562 C 120.226562 -14.480469 114.613281 -9.074219 108.65625 -5.257812 C 102.699219 -1.445312 96.570312 1.171875 90.265625 2.589844 C 84.058594 3.992188 77.796875 4.691406 71.476562 4.691406 C 61.941406 4.691406 53.109375 3.359375 44.984375 0.699219 C 36.785156 -1.984375 29.648438 -6.054688 23.578125 -11.507812 C 17.480469 -16.984375 12.761719 -23.847656 9.414062 -32.105469 C 6.089844 -40.308594 4.425781 -49.90625 4.425781 -60.890625 C 4.425781 -71.148438 5.902344 -80.398438 8.855469 -88.648438 C 11.828125 -96.945312 16.078125 -104.039062 21.605469 -109.929688 C 27.140625 -115.832031 33.75 -120.347656 41.429688 -123.476562 C 49.074219 -126.59375 57.554688 -128.152344 66.867188 -128.152344 C 75.535156 -128.152344 83.5 -126.738281 90.75 -123.910156 C 98.039062 -121.066406 104.363281 -116.945312 109.726562 -111.546875 C 115.089844 -106.148438 119.226562 -99.609375 122.132812 -91.9375 C 125.027344 -84.304688 126.476562 -75.667969 126.476562 -66.027344 C 126.476562 -64.746094 126.457031 -63.550781 126.421875 -62.441406 C 126.382812 -61.289062 126.273438 -59.980469 126.089844 -58.511719 C 125.914062 -57.09375 125.648438 -55.253906 125.292969 -52.992188 L 124.992188 -51.066406 L 42.339844 -51.066406 L 42.339844 -53.347656 L 44.621094 -53.402344 C 44.75 -48.152344 46.003906 -43.585938 48.375 -39.707031 C 50.746094 -35.832031 53.964844 -32.804688 58.039062 -30.621094 C 62.140625 -28.425781 66.792969 -27.328125 72 -27.328125 Z M 72 -22.769531 C 66.03125 -22.769531 60.65625 -24.046875 55.886719 -26.601562 C 51.085938 -29.171875 47.285156 -32.746094 44.484375 -37.324219 C 41.683594 -41.902344 40.210938 -47.222656 40.0625 -53.289062 L 40.003906 -55.625 L 123.042969 -55.625 L 123.042969 -53.347656 L 120.789062 -53.699219 C 121.132812 -55.910156 121.394531 -57.703125 121.5625 -59.078125 C 121.730469 -60.40625 121.828125 -61.578125 121.863281 -62.589844 C 121.898438 -63.648438 121.914062 -64.792969 121.914062 -66.027344 C 121.914062 -75.113281 120.566406 -83.207031 117.871094 -90.320312 C 115.191406 -97.386719 111.394531 -103.394531 106.488281 -108.332031 C 101.578125 -113.277344 95.78125 -117.050781 89.09375 -119.660156 C 82.375 -122.28125 74.964844 -123.589844 66.867188 -123.589844 C 58.152344 -123.589844 50.246094 -122.144531 43.148438 -119.253906 C 36.085938 -116.375 30.011719 -112.226562 24.929688 -106.808594 C 19.835938 -101.378906 15.910156 -94.8125 13.152344 -87.109375 C 10.375 -79.359375 8.988281 -70.621094 8.988281 -60.890625 C 8.988281 -50.5 10.539062 -41.472656 13.640625 -33.816406 C 16.722656 -26.214844 21.050781 -19.90625 26.625 -14.902344 C 32.222656 -9.875 38.8125 -6.121094 46.40625 -3.632812 C 54.070312 -1.125 62.425781 0.128906 71.476562 0.128906 C 77.457031 0.128906 83.386719 -0.53125 89.265625 -1.859375 C 95.046875 -3.160156 100.691406 -5.574219 106.195312 -9.101562 C 111.695312 -12.621094 116.910156 -17.660156 121.847656 -24.21875 L 123.671875 -22.847656 L 122.292969 -21.03125 L 98.921875 -38.742188 L 100.296875 -40.558594 L 102.269531 -39.410156 C 100.160156 -35.792969 97.464844 -32.742188 94.183594 -30.253906 C 90.941406 -27.792969 87.402344 -25.929688 83.5625 -24.664062 C 79.734375 -23.398438 75.878906 -22.769531 72 -22.769531 Z M 66.34375 -97.390625 C 61.652344 -97.390625 57.859375 -96.546875 54.960938 -94.867188 C 52.074219 -93.191406 49.878906 -91 48.367188 -88.289062 C 46.792969 -85.457031 45.742188 -82.324219 45.226562 -78.890625 L 42.96875 -79.234375 L 42.96875 -81.511719 L 89.503906 -81.511719 L 89.503906 -79.234375 L 87.242188 -78.953125 C 86.539062 -84.640625 84.472656 -89.148438 81.050781 -92.480469 C 77.683594 -95.753906 72.78125 -97.390625 66.34375 -97.390625 Z M 66.34375 -101.949219 C 74.015625 -101.949219 79.980469 -99.882812 84.230469 -95.75 C 88.421875 -91.675781 90.933594 -86.261719 91.765625 -79.511719 L 92.082031 -76.953125 L 40.320312 -76.953125 L 40.714844 -79.574219 C 41.316406 -83.546875 42.539062 -87.195312 44.382812 -90.507812 C 46.300781 -93.949219 49.0625 -96.714844 52.671875 -98.8125 C 56.273438 -100.90625 60.832031 -101.949219 66.34375 -101.949219 Z M 66.34375 -101.949219 "/></g></g></g><g fill="#f6f4f0" fill-opacity="1"><g transform="translate(274.213036, 389.993521)"><g><path d="M 52.613281 2.28125 C 40.480469 2.28125 31.496094 -0.9375 25.664062 -7.378906 C 19.890625 -13.75 17.003906 -23.34375 17.003906 -36.15625 L 17.003906 -102.394531 L 19.285156 -102.394531 L 19.285156 -100.113281 L 0.339844 -100.113281 L 0.339844 -125.742188 L 19.285156 -125.742188 L 19.285156 -123.460938 L 17.003906 -123.460938 L 17.003906 -168.710938 L 56.78125 -168.710938 L 56.78125 -123.460938 L 54.5 -123.460938 L 54.5 -125.742188 L 82.5625 -125.742188 L 82.5625 -100.113281 L 54.5 -100.113281 L 54.5 -102.394531 L 56.78125 -102.394531 L 56.78125 -43.285156 C 56.78125 -39.410156 57.125 -36.433594 57.816406 -34.363281 C 58.375 -32.6875 59.347656 -31.53125 60.738281 -30.898438 C 62.429688 -30.125 64.855469 -29.738281 68.019531 -29.738281 L 82.5625 -29.738281 L 82.5625 2.28125 Z M 52.613281 -2.28125 L 80.28125 -2.28125 L 80.28125 0 L 78 0 L 78 -27.460938 L 80.28125 -27.460938 L 80.28125 -25.179688 L 68.019531 -25.179688 C 64.195312 -25.179688 61.136719 -25.699219 58.84375 -26.746094 C 56.25 -27.929688 54.464844 -29.988281 53.488281 -32.921875 C 52.640625 -35.460938 52.21875 -38.914062 52.21875 -43.285156 L 52.21875 -104.675781 L 80.28125 -104.675781 L 80.28125 -102.394531 L 78 -102.394531 L 78 -123.460938 L 80.28125 -123.460938 L 80.28125 -121.179688 L 52.21875 -121.179688 L 52.21875 -166.429688 L 54.5 -166.429688 L 54.5 -164.148438 L 19.285156 -164.148438 L 19.285156 -166.429688 L 21.566406 -166.429688 L 21.566406 -121.179688 L 2.621094 -121.179688 L 2.621094 -123.460938 L 4.902344 -123.460938 L 4.902344 -102.394531 L 2.621094 -102.394531 L 2.621094 -104.675781 L 21.566406 -104.675781 L 21.566406 -36.15625 C 21.566406 -24.515625 24.058594 -15.945312 29.042969 -10.441406 C 33.972656 -5 41.828125 -2.28125 52.613281 -2.28125 Z M 52.613281 -2.28125 "/></g></g></g><g fill="#f6f4f0" fill-opacity="1"><g transform="translate(0.597731, 571.417803)"><g><path d="M 13.441406 -140.648438 L 13.441406 -168.710938 L 53.320312 -168.710938 L 53.320312 -138.367188 L 13.441406 -138.367188 Z M 18 -140.648438 L 15.722656 -140.648438 L 15.722656 -142.929688 L 51.039062 -142.929688 L 51.039062 -140.648438 L 48.757812 -140.648438 L 48.757812 -166.429688 L 51.039062 -166.429688 L 51.039062 -164.148438 L 15.722656 -164.148438 L 15.722656 -166.429688 L 18 -166.429688 Z M 13.441406 0 L 13.441406 -125.742188 L 53.320312 -125.742188 L 53.320312 2.28125 L 13.441406 2.28125 Z M 18 0 L 15.722656 0 L 15.722656 -2.28125 L 51.039062 -2.28125 L 51.039062 0 L 48.757812 0 L 48.757812 -123.460938 L 51.039062 -123.460938 L 51.039062 -121.179688 L 15.722656 -121.179688 L 15.722656 -123.460938 L 18 -123.460938 Z M 18 0 "/></g></g></g><g fill="#f6f4f0" fill-opacity="1"><g transform="translate(67.351064, 571.417803)"><g><path d="M 13.441406 0 L 13.441406 -125.742188 L 52.796875 -125.742188 L 52.796875 -108.789062 L 50.515625 -108.789062 L 50.515625 -111.070312 L 51.773438 -111.070312 L 51.773438 -108.789062 L 49.949219 -110.15625 C 52.394531 -113.417969 55.511719 -116.410156 59.300781 -119.128906 C 63.089844 -121.851562 67.527344 -124.039062 72.609375 -125.683594 C 77.691406 -127.328125 83.359375 -128.152344 89.609375 -128.152344 C 98.390625 -128.152344 106.117188 -126.273438 112.789062 -122.511719 C 119.507812 -118.726562 124.714844 -113.28125 128.417969 -106.171875 C 132.082031 -99.136719 133.917969 -90.714844 133.917969 -80.910156 L 133.917969 2.28125 L 94.453125 2.28125 L 94.453125 -72.210938 C 94.453125 -80.59375 92.773438 -86.46875 89.410156 -89.828125 C 86.046875 -93.191406 81.46875 -94.875 75.667969 -94.875 C 71.3125 -94.875 67.457031 -93.9375 64.097656 -92.070312 C 60.816406 -90.246094 58.21875 -87.316406 56.296875 -83.28125 C 54.3125 -79.121094 53.320312 -73.578125 53.320312 -66.65625 L 53.320312 2.28125 L 13.441406 2.28125 Z M 18 0 L 15.722656 0 L 15.722656 -2.28125 L 51.039062 -2.28125 L 51.039062 0 L 48.757812 0 L 48.757812 -66.65625 C 48.757812 -74.265625 49.898438 -80.460938 52.179688 -85.246094 C 54.519531 -90.15625 57.75 -93.757812 61.878906 -96.054688 C 65.925781 -98.308594 70.523438 -99.433594 75.667969 -99.433594 C 82.726562 -99.433594 88.382812 -97.308594 92.636719 -93.054688 C 96.890625 -88.800781 99.015625 -81.855469 99.015625 -72.210938 L 99.015625 0 L 96.734375 0 L 96.734375 -2.28125 L 131.636719 -2.28125 L 131.636719 0 L 129.355469 0 L 129.355469 -80.910156 C 129.355469 -89.96875 127.695312 -97.6875 124.371094 -104.066406 C 121.085938 -110.375 116.480469 -115.199219 110.550781 -118.539062 C 104.574219 -121.90625 97.59375 -123.589844 89.609375 -123.589844 C 83.839844 -123.589844 78.640625 -122.839844 74.015625 -121.34375 C 69.382812 -119.84375 65.367188 -117.871094 61.960938 -115.425781 C 58.550781 -112.976562 55.765625 -110.308594 53.597656 -107.417969 L 52.914062 -106.507812 L 48.234375 -106.507812 L 48.234375 -123.460938 L 50.515625 -123.460938 L 50.515625 -121.179688 L 15.722656 -121.179688 L 15.722656 -123.460938 L 18 -123.460938 Z M 18 0 "/></g></g></g><g fill="#f6f4f0" fill-opacity="1"><g transform="translate(212.07061, 571.417803)"><g><path d="M 65.398438 47.660156 C 60.03125 47.660156 54.457031 47.179688 48.675781 46.214844 C 42.84375 45.242188 37.179688 43.625 31.671875 41.359375 C 26.113281 39.070312 21.003906 35.980469 16.355469 32.089844 C 11.640625 28.152344 7.820312 23.285156 4.882812 17.484375 L 3.835938 15.421875 L 35.808594 -0.207031 L 36.914062 1.476562 C 40.679688 7.222656 44.78125 11.265625 49.21875 13.597656 C 53.671875 15.9375 58.613281 17.109375 64.035156 17.109375 C 68.328125 17.109375 72.355469 16.28125 76.113281 14.628906 C 79.730469 13.039062 82.65625 10.421875 84.886719 6.773438 C 87.144531 3.085938 88.269531 -2 88.269531 -8.488281 L 88.269531 -19.703125 L 90.550781 -19.703125 L 90.550781 -17.421875 L 89.292969 -17.421875 L 89.292969 -19.703125 L 91.277344 -18.578125 C 88.402344 -13.511719 83.992188 -9.40625 78.046875 -6.261719 C 72.15625 -3.152344 65.179688 -1.597656 57.117188 -1.597656 C 49.667969 -1.597656 42.71875 -3.042969 36.273438 -5.9375 C 29.824219 -8.832031 24.183594 -13.023438 19.355469 -18.511719 C 14.542969 -23.980469 10.8125 -30.613281 8.164062 -38.410156 C 5.53125 -46.160156 4.21875 -54.945312 4.21875 -64.769531 C 4.21875 -74.945312 5.570312 -83.945312 8.273438 -91.769531 C 10.992188 -99.632812 14.738281 -106.265625 19.515625 -111.660156 C 24.3125 -117.082031 29.886719 -121.1875 36.234375 -123.976562 C 42.570312 -126.761719 49.359375 -128.152344 56.59375 -128.152344 C 63.566406 -128.152344 70.085938 -126.753906 76.152344 -123.960938 C 82.324219 -121.117188 87.238281 -116.816406 90.902344 -111.058594 L 88.980469 -109.835938 L 88.980469 -112.117188 L 90.445312 -112.117188 L 90.445312 -109.835938 L 88.167969 -109.835938 L 88.167969 -125.742188 L 128.046875 -125.742188 L 128.046875 -10.167969 C 128.046875 -1.082031 126.792969 6.765625 124.285156 13.386719 C 121.757812 20.042969 118.304688 25.597656 113.925781 30.054688 C 109.578125 34.472656 104.683594 37.980469 99.234375 40.574219 C 93.851562 43.140625 88.230469 44.964844 82.375 46.050781 C 76.578125 47.125 70.917969 47.660156 65.398438 47.660156 Z M 65.398438 43.101562 C 70.640625 43.101562 76.019531 42.589844 81.542969 41.566406 C 87.003906 40.554688 92.25 38.851562 97.273438 36.457031 C 102.238281 34.09375 106.703125 30.890625 110.671875 26.855469 C 114.605469 22.855469 117.722656 17.828125 120.019531 11.769531 C 122.328125 5.671875 123.484375 -1.640625 123.484375 -10.167969 L 123.484375 -123.460938 L 125.765625 -123.460938 L 125.765625 -121.179688 L 90.445312 -121.179688 L 90.445312 -123.460938 L 92.726562 -123.460938 L 92.726562 -107.554688 L 87.726562 -107.554688 L 87.054688 -108.613281 C 83.871094 -113.613281 79.601562 -117.347656 74.242188 -119.816406 C 68.78125 -122.332031 62.898438 -123.589844 56.59375 -123.589844 C 49.996094 -123.589844 43.824219 -122.328125 38.070312 -119.800781 C 32.332031 -117.28125 27.285156 -113.558594 22.929688 -108.640625 C 18.554688 -103.695312 15.105469 -97.574219 12.582031 -90.277344 C 10.046875 -82.9375 8.777344 -74.4375 8.777344 -64.769531 C 8.777344 -55.449219 10.011719 -47.152344 12.484375 -39.878906 C 14.9375 -32.65625 18.367188 -26.535156 22.777344 -21.523438 C 27.171875 -16.53125 32.292969 -12.722656 38.140625 -10.097656 C 43.992188 -7.472656 50.316406 -6.160156 57.117188 -6.160156 C 64.425781 -6.160156 70.691406 -7.539062 75.914062 -10.296875 C 81.074219 -13.023438 84.875 -16.535156 87.308594 -20.828125 L 87.964844 -21.984375 L 92.832031 -21.984375 L 92.832031 -8.488281 C 92.832031 -1.144531 91.480469 4.738281 88.777344 9.15625 C 86.046875 13.613281 82.4375 16.832031 77.949219 18.804688 C 73.605469 20.714844 68.96875 21.667969 64.035156 21.667969 C 57.863281 21.667969 52.214844 20.324219 47.097656 17.636719 C 41.960938 14.9375 37.296875 10.382812 33.097656 3.976562 L 35.003906 2.726562 L 36.007812 4.773438 L 7.917969 18.503906 L 6.917969 16.453125 L 8.953125 15.425781 C 11.605469 20.664062 15.046875 25.054688 19.28125 28.589844 C 23.570312 32.179688 28.28125 35.027344 33.410156 37.140625 C 38.597656 39.277344 43.933594 40.800781 49.425781 41.714844 C 54.960938 42.640625 60.285156 43.101562 65.398438 43.101562 Z M 67.914062 -32.882812 C 75.269531 -32.882812 80.9375 -35.46875 84.917969 -40.640625 C 89.039062 -45.996094 91.101562 -53.828125 91.101562 -64.140625 C 91.101562 -70.636719 90.171875 -76.304688 88.316406 -81.140625 C 86.519531 -85.832031 83.875 -89.476562 80.386719 -92.078125 C 76.945312 -94.640625 72.648438 -95.921875 67.496094 -95.921875 C 60.230469 -95.921875 54.625 -93.226562 50.679688 -87.839844 C 46.570312 -82.234375 44.515625 -74.332031 44.515625 -64.140625 C 44.515625 -54.296875 46.570312 -46.570312 50.679688 -40.964844 C 54.625 -35.578125 60.371094 -32.882812 67.914062 -32.882812 Z M 67.914062 -28.324219 C 58.828125 -28.324219 51.855469 -31.636719 47 -38.269531 C 42.304688 -44.679688 39.957031 -53.304688 39.957031 -64.140625 C 39.957031 -75.328125 42.304688 -84.128906 47 -90.539062 C 51.855469 -97.167969 58.6875 -100.484375 67.496094 -100.484375 C 73.660156 -100.484375 78.863281 -98.898438 83.109375 -95.734375 C 87.308594 -92.605469 90.460938 -88.285156 92.578125 -82.773438 C 94.632812 -77.410156 95.664062 -71.199219 95.664062 -64.140625 C 95.664062 -52.792969 93.285156 -44.03125 88.535156 -37.859375 C 83.640625 -31.5 76.765625 -28.324219 67.914062 -28.324219 Z M 67.914062 -28.324219 "/></g></g></g><g fill="#f6f4f0" fill-opacity="1"><g transform="translate(353.550424, 571.417803)"><g/></g></g></g></g><path stroke-linecap="butt" transform="matrix(0.74963, 0, 0, 0.74963, 137.75245, 332.583315)" fill="none" stroke-linejoin="miter" d="M 0.00194278 3.500016 L 637.691741 3.500016 " stroke="#f6f4f0" stroke-width="7" stroke-opacity="1" stroke-miterlimit="4"/><path stroke-linecap="butt" transform="matrix(0.74963, 0, 0, 0.74963, 137.75245, 519.635865)" fill="none" stroke-linejoin="miter" d="M 0.00194278 3.497657 L 637.691741 3.497657 " stroke="#f6f4f0" stroke-width="7" stroke-opacity="1" stroke-miterlimit="4"/><path stroke-linecap="butt" transform="matrix(0.74963, 0, 0, 0.74963, 137.75245, 692.144647)" fill="none" stroke-linejoin="miter" d="M 0.00194278 3.501574 L 637.691741 3.501574 " stroke="#f6f4f0" stroke-width="7" stroke-opacity="1" stroke-miterlimit="4"/><g fill="#f6f4f0" fill-opacity="1"><g transform="translate(544.612661, 763.890284)"><g><path d="M 25.140625 0 L 25.140625 -44.40625 L 69.171875 -44.40625 L 69.171875 0 Z M 25.140625 0 "/></g></g></g></svg>